<?xml version="1.0" encoding="UTF-8"?><svg xmlns="http://www.w3.org/2000/svg" xmlns:xlink="http://www.w3.org/1999/xlink" fill-opacity="1" color-rendering="auto" color-interpolation="auto" text-rendering="auto" stroke="black" stroke-linecap="square" width="833" stroke-miterlimit="10" shape-rendering="auto" stroke-opacity="1" fill="black" stroke-dasharray="none" font-weight="normal" stroke-width="1" height="466" font-family="'Dialog'" font-style="normal" stroke-linejoin="miter" font-size="12px" stroke-dashoffset="0" image-rendering="auto">
  <!--Generated by ySVG 2.5-->
  <defs id="genericDefs"/>
  <g>
    <defs id="defs1">
      <clipPath clipPathUnits="userSpaceOnUse" id="clipPath1">
        <path d="M0 0 L833 0 L833 466 L0 466 L0 0 Z"/>
      </clipPath>
      <clipPath clipPathUnits="userSpaceOnUse" id="clipPath2">
        <path d="M817 104 L1650 104 L1650 570 L817 570 L817 104 Z"/>
      </clipPath>
    </defs>
    <g fill="rgb(249,254,255)" text-rendering="geometricPrecision" shape-rendering="geometricPrecision" transform="matrix(1,0,0,1,-817,-104)" stroke="rgb(249,254,255)">
      <rect x="832.5" width="450" height="340" y="215" clip-path="url(#clipPath2)" stroke="none"/>
    </g>
    <g text-rendering="geometricPrecision" stroke-miterlimit="1.45" shape-rendering="geometricPrecision" transform="matrix(1,0,0,1,-817,-104)" stroke-linecap="butt">
      <rect fill="none" x="832.5" width="450" height="340" y="215" clip-path="url(#clipPath2)"/>
      <text x="1040.165" xml:space="preserve" y="233.0645" clip-path="url(#clipPath2)" font-family="sans-serif" stroke="none">Array i</text>
    </g>
    <g fill="rgb(204,255,255)" text-rendering="geometricPrecision" shape-rendering="geometricPrecision" transform="matrix(1,0,0,1,-817,-104)" stroke="rgb(204,255,255)">
      <rect x="838" width="100" height="300" y="245" clip-path="url(#clipPath2)" stroke="none"/>
    </g>
    <g text-rendering="geometricPrecision" stroke-miterlimit="1.45" shape-rendering="geometricPrecision" transform="matrix(1,0,0,1,-817,-104)" stroke-linecap="butt">
      <rect fill="none" x="838" width="100" height="300" y="245" clip-path="url(#clipPath2)"/>
      <text x="870.665" xml:space="preserve" y="263.0645" clip-path="url(#clipPath2)" font-family="sans-serif" stroke="none">Array j</text>
    </g>
    <g fill="rgb(204,255,255)" text-rendering="geometricPrecision" shape-rendering="geometricPrecision" transform="matrix(1,0,0,1,-817,-104)" stroke="rgb(204,255,255)">
      <rect x="950" width="100" height="300" y="245" clip-path="url(#clipPath2)" stroke="none"/>
    </g>
    <g text-rendering="geometricPrecision" stroke-miterlimit="1.45" shape-rendering="geometricPrecision" transform="matrix(1,0,0,1,-817,-104)" stroke-linecap="butt">
      <rect fill="none" x="950" width="100" height="300" y="245" clip-path="url(#clipPath2)"/>
      <text x="982.665" xml:space="preserve" y="263.0645" clip-path="url(#clipPath2)" font-family="sans-serif" stroke="none">Array j</text>
    </g>
    <g fill="rgb(153,204,255)" text-rendering="geometricPrecision" shape-rendering="geometricPrecision" transform="matrix(1,0,0,1,-817,-104)" stroke="rgb(153,204,255)">
      <path d="M860 283 L923 283 L916 313 L853 313 Z" fill-rule="evenodd" clip-path="url(#clipPath2)" stroke="none"/>
    </g>
    <g text-rendering="geometricPrecision" stroke-miterlimit="1.45" shape-rendering="geometricPrecision" transform="matrix(1,0,0,1,-817,-104)" stroke-linecap="butt">
      <path fill="none" d="M860 283 L923 283 L916 313 L853 313 Z" fill-rule="evenodd" clip-path="url(#clipPath2)"/>
      <text x="862.3213" xml:space="preserve" y="302.7139" clip-path="url(#clipPath2)" font-family="sans-serif" stroke="none">Hashmap</text>
    </g>
    <g fill="rgb(153,204,255)" text-rendering="geometricPrecision" shape-rendering="geometricPrecision" transform="matrix(1,0,0,1,-817,-104)" stroke="rgb(153,204,255)">
      <path d="M857 343 L920 343 L913 373 L850 373 Z" fill-rule="evenodd" clip-path="url(#clipPath2)" stroke="none"/>
    </g>
    <g text-rendering="geometricPrecision" stroke-miterlimit="1.45" shape-rendering="geometricPrecision" transform="matrix(1,0,0,1,-817,-104)" stroke-linecap="butt">
      <path fill="none" d="M857 343 L920 343 L913 373 L850 373 Z" fill-rule="evenodd" clip-path="url(#clipPath2)"/>
      <text x="859.3213" xml:space="preserve" y="362.7139" clip-path="url(#clipPath2)" font-family="sans-serif" stroke="none">Hashmap</text>
    </g>
    <g fill="rgb(153,204,255)" text-rendering="geometricPrecision" shape-rendering="geometricPrecision" transform="matrix(1,0,0,1,-817,-104)" stroke="rgb(153,204,255)">
      <path d="M857 403 L920 403 L913 433 L850 433 Z" fill-rule="evenodd" clip-path="url(#clipPath2)" stroke="none"/>
    </g>
    <g text-rendering="geometricPrecision" stroke-miterlimit="1.45" shape-rendering="geometricPrecision" transform="matrix(1,0,0,1,-817,-104)" stroke-linecap="butt">
      <path fill="none" d="M857 403 L920 403 L913 433 L850 433 Z" fill-rule="evenodd" clip-path="url(#clipPath2)"/>
      <text x="859.3213" xml:space="preserve" y="422.7139" clip-path="url(#clipPath2)" font-family="sans-serif" stroke="none">Hashmap</text>
    </g>
    <g fill="rgb(153,204,255)" text-rendering="geometricPrecision" shape-rendering="geometricPrecision" transform="matrix(1,0,0,1,-817,-104)" stroke="rgb(153,204,255)">
      <path d="M857 463 L920 463 L913 493 L850 493 Z" fill-rule="evenodd" clip-path="url(#clipPath2)" stroke="none"/>
    </g>
    <g text-rendering="geometricPrecision" stroke-miterlimit="1.45" shape-rendering="geometricPrecision" transform="matrix(1,0,0,1,-817,-104)" stroke-linecap="butt">
      <path fill="none" d="M857 463 L920 463 L913 493 L850 493 Z" fill-rule="evenodd" clip-path="url(#clipPath2)"/>
      <text x="859.3213" xml:space="preserve" y="482.7139" clip-path="url(#clipPath2)" font-family="sans-serif" stroke="none">Hashmap</text>
    </g>
    <g fill="rgb(153,204,255)" text-rendering="geometricPrecision" shape-rendering="geometricPrecision" transform="matrix(1,0,0,1,-817,-104)" stroke="rgb(153,204,255)">
      <path d="M972 283 L1035 283 L1028 313 L965 313 Z" fill-rule="evenodd" clip-path="url(#clipPath2)" stroke="none"/>
    </g>
    <g text-rendering="geometricPrecision" stroke-miterlimit="1.45" shape-rendering="geometricPrecision" transform="matrix(1,0,0,1,-817,-104)" stroke-linecap="butt">
      <path fill="none" d="M972 283 L1035 283 L1028 313 L965 313 Z" fill-rule="evenodd" clip-path="url(#clipPath2)"/>
      <text x="974.3213" xml:space="preserve" y="302.7139" clip-path="url(#clipPath2)" font-family="sans-serif" stroke="none">Hashmap</text>
    </g>
    <g fill="rgb(153,204,255)" text-rendering="geometricPrecision" shape-rendering="geometricPrecision" transform="matrix(1,0,0,1,-817,-104)" stroke="rgb(153,204,255)">
      <path d="M972 343 L1035 343 L1028 373 L965 373 Z" fill-rule="evenodd" clip-path="url(#clipPath2)" stroke="none"/>
    </g>
    <g text-rendering="geometricPrecision" stroke-miterlimit="1.45" shape-rendering="geometricPrecision" transform="matrix(1,0,0,1,-817,-104)" stroke-linecap="butt">
      <path fill="none" d="M972 343 L1035 343 L1028 373 L965 373 Z" fill-rule="evenodd" clip-path="url(#clipPath2)"/>
      <text x="974.3213" xml:space="preserve" y="362.7139" clip-path="url(#clipPath2)" font-family="sans-serif" stroke="none">Hashmap</text>
    </g>
    <g fill="rgb(153,204,255)" text-rendering="geometricPrecision" shape-rendering="geometricPrecision" transform="matrix(1,0,0,1,-817,-104)" stroke="rgb(153,204,255)">
      <path d="M972 403 L1035 403 L1028 433 L965 433 Z" fill-rule="evenodd" clip-path="url(#clipPath2)" stroke="none"/>
    </g>
    <g text-rendering="geometricPrecision" stroke-miterlimit="1.45" shape-rendering="geometricPrecision" transform="matrix(1,0,0,1,-817,-104)" stroke-linecap="butt">
      <path fill="none" d="M972 403 L1035 403 L1028 433 L965 433 Z" fill-rule="evenodd" clip-path="url(#clipPath2)"/>
      <text x="974.3213" xml:space="preserve" y="422.7139" clip-path="url(#clipPath2)" font-family="sans-serif" stroke="none">Hashmap</text>
    </g>
    <g fill="rgb(153,204,255)" text-rendering="geometricPrecision" shape-rendering="geometricPrecision" transform="matrix(1,0,0,1,-817,-104)" stroke="rgb(153,204,255)">
      <path d="M972 463 L1035 463 L1028 493 L965 493 Z" fill-rule="evenodd" clip-path="url(#clipPath2)" stroke="none"/>
    </g>
    <g text-rendering="geometricPrecision" stroke-miterlimit="1.45" shape-rendering="geometricPrecision" transform="matrix(1,0,0,1,-817,-104)" stroke-linecap="butt">
      <path fill="none" d="M972 463 L1035 463 L1028 493 L965 493 Z" fill-rule="evenodd" clip-path="url(#clipPath2)"/>
      <text x="974.3213" xml:space="preserve" y="482.7139" clip-path="url(#clipPath2)" font-family="sans-serif" stroke="none">Hashmap</text>
    </g>
    <g fill="rgb(204,255,255)" text-rendering="geometricPrecision" shape-rendering="geometricPrecision" transform="matrix(1,0,0,1,-817,-104)" stroke="rgb(204,255,255)">
      <rect x="1062" width="100" height="300" y="245" clip-path="url(#clipPath2)" stroke="none"/>
    </g>
    <g text-rendering="geometricPrecision" stroke-miterlimit="1.45" shape-rendering="geometricPrecision" transform="matrix(1,0,0,1,-817,-104)" stroke-linecap="butt">
      <rect fill="none" x="1062" width="100" height="300" y="245" clip-path="url(#clipPath2)"/>
      <text x="1094.665" xml:space="preserve" y="263.0645" clip-path="url(#clipPath2)" font-family="sans-serif" stroke="none">Array j</text>
    </g>
    <g fill="rgb(153,204,255)" text-rendering="geometricPrecision" shape-rendering="geometricPrecision" transform="matrix(1,0,0,1,-817,-104)" stroke="rgb(153,204,255)">
      <path d="M1084 283 L1147 283 L1140 313 L1077 313 Z" fill-rule="evenodd" clip-path="url(#clipPath2)" stroke="none"/>
    </g>
    <g text-rendering="geometricPrecision" stroke-miterlimit="1.45" shape-rendering="geometricPrecision" transform="matrix(1,0,0,1,-817,-104)" stroke-linecap="butt">
      <path fill="none" d="M1084 283 L1147 283 L1140 313 L1077 313 Z" fill-rule="evenodd" clip-path="url(#clipPath2)"/>
      <text x="1086.3213" xml:space="preserve" y="302.7139" clip-path="url(#clipPath2)" font-family="sans-serif" stroke="none">Hashmap</text>
    </g>
    <g fill="rgb(153,204,255)" text-rendering="geometricPrecision" shape-rendering="geometricPrecision" transform="matrix(1,0,0,1,-817,-104)" stroke="rgb(153,204,255)">
      <path d="M1081 343 L1144 343 L1137 373 L1074 373 Z" fill-rule="evenodd" clip-path="url(#clipPath2)" stroke="none"/>
    </g>
    <g text-rendering="geometricPrecision" stroke-miterlimit="1.45" shape-rendering="geometricPrecision" transform="matrix(1,0,0,1,-817,-104)" stroke-linecap="butt">
      <path fill="none" d="M1081 343 L1144 343 L1137 373 L1074 373 Z" fill-rule="evenodd" clip-path="url(#clipPath2)"/>
      <text x="1083.3213" xml:space="preserve" y="362.7139" clip-path="url(#clipPath2)" font-family="sans-serif" stroke="none">Hashmap</text>
    </g>
    <g fill="rgb(153,204,255)" text-rendering="geometricPrecision" shape-rendering="geometricPrecision" transform="matrix(1,0,0,1,-817,-104)" stroke="rgb(153,204,255)">
      <path d="M1081 403 L1144 403 L1137 433 L1074 433 Z" fill-rule="evenodd" clip-path="url(#clipPath2)" stroke="none"/>
    </g>
    <g text-rendering="geometricPrecision" stroke-miterlimit="1.45" shape-rendering="geometricPrecision" transform="matrix(1,0,0,1,-817,-104)" stroke-linecap="butt">
      <path fill="none" d="M1081 403 L1144 403 L1137 433 L1074 433 Z" fill-rule="evenodd" clip-path="url(#clipPath2)"/>
      <text x="1083.3213" xml:space="preserve" y="422.7139" clip-path="url(#clipPath2)" font-family="sans-serif" stroke="none">Hashmap</text>
    </g>
    <g fill="rgb(153,204,255)" text-rendering="geometricPrecision" shape-rendering="geometricPrecision" transform="matrix(1,0,0,1,-817,-104)" stroke="rgb(153,204,255)">
      <path d="M1081 463 L1144 463 L1137 493 L1074 493 Z" fill-rule="evenodd" clip-path="url(#clipPath2)" stroke="none"/>
    </g>
    <g text-rendering="geometricPrecision" stroke-miterlimit="1.45" shape-rendering="geometricPrecision" transform="matrix(1,0,0,1,-817,-104)" stroke-linecap="butt">
      <path fill="none" d="M1081 463 L1144 463 L1137 493 L1074 493 Z" fill-rule="evenodd" clip-path="url(#clipPath2)"/>
      <text x="1083.3213" xml:space="preserve" y="482.7139" clip-path="url(#clipPath2)" font-family="sans-serif" stroke="none">Hashmap</text>
    </g>
    <g fill="rgb(204,255,255)" text-rendering="geometricPrecision" shape-rendering="geometricPrecision" transform="matrix(1,0,0,1,-817,-104)" stroke="rgb(204,255,255)">
      <rect x="1174" width="100" height="300" y="245" clip-path="url(#clipPath2)" stroke="none"/>
    </g>
    <g text-rendering="geometricPrecision" stroke-miterlimit="1.45" shape-rendering="geometricPrecision" transform="matrix(1,0,0,1,-817,-104)" stroke-linecap="butt">
      <rect fill="none" x="1174" width="100" height="300" y="245" clip-path="url(#clipPath2)"/>
      <text x="1206.665" xml:space="preserve" y="263.0645" clip-path="url(#clipPath2)" font-family="sans-serif" stroke="none">Array j</text>
    </g>
    <g fill="rgb(153,204,255)" text-rendering="geometricPrecision" shape-rendering="geometricPrecision" transform="matrix(1,0,0,1,-817,-104)" stroke="rgb(153,204,255)">
      <path d="M1196 283 L1259 283 L1252 313 L1189 313 Z" fill-rule="evenodd" clip-path="url(#clipPath2)" stroke="none"/>
    </g>
    <g text-rendering="geometricPrecision" stroke-miterlimit="1.45" shape-rendering="geometricPrecision" transform="matrix(1,0,0,1,-817,-104)" stroke-linecap="butt">
      <path fill="none" d="M1196 283 L1259 283 L1252 313 L1189 313 Z" fill-rule="evenodd" clip-path="url(#clipPath2)"/>
      <text x="1198.3213" xml:space="preserve" y="302.7139" clip-path="url(#clipPath2)" font-family="sans-serif" stroke="none">Hashmap</text>
    </g>
    <g fill="rgb(153,204,255)" text-rendering="geometricPrecision" shape-rendering="geometricPrecision" transform="matrix(1,0,0,1,-817,-104)" stroke="rgb(153,204,255)">
      <path d="M1193 343 L1256 343 L1249 373 L1186 373 Z" fill-rule="evenodd" clip-path="url(#clipPath2)" stroke="none"/>
    </g>
    <g text-rendering="geometricPrecision" stroke-miterlimit="1.45" shape-rendering="geometricPrecision" transform="matrix(1,0,0,1,-817,-104)" stroke-linecap="butt">
      <path fill="none" d="M1193 343 L1256 343 L1249 373 L1186 373 Z" fill-rule="evenodd" clip-path="url(#clipPath2)"/>
      <text x="1195.3213" xml:space="preserve" y="362.7139" clip-path="url(#clipPath2)" font-family="sans-serif" stroke="none">Hashmap</text>
    </g>
    <g fill="rgb(153,204,255)" text-rendering="geometricPrecision" shape-rendering="geometricPrecision" transform="matrix(1,0,0,1,-817,-104)" stroke="rgb(153,204,255)">
      <path d="M1193 403 L1256 403 L1249 433 L1186 433 Z" fill-rule="evenodd" clip-path="url(#clipPath2)" stroke="none"/>
    </g>
    <g text-rendering="geometricPrecision" stroke-miterlimit="1.45" shape-rendering="geometricPrecision" transform="matrix(1,0,0,1,-817,-104)" stroke-linecap="butt">
      <path fill="none" d="M1193 403 L1256 403 L1249 433 L1186 433 Z" fill-rule="evenodd" clip-path="url(#clipPath2)"/>
      <text x="1195.3213" xml:space="preserve" y="422.7139" clip-path="url(#clipPath2)" font-family="sans-serif" stroke="none">Hashmap</text>
    </g>
    <g fill="rgb(153,204,255)" text-rendering="geometricPrecision" shape-rendering="geometricPrecision" transform="matrix(1,0,0,1,-817,-104)" stroke="rgb(153,204,255)">
      <path d="M1193 463 L1256 463 L1249 493 L1186 493 Z" fill-rule="evenodd" clip-path="url(#clipPath2)" stroke="none"/>
    </g>
    <g text-rendering="geometricPrecision" stroke-miterlimit="1.45" shape-rendering="geometricPrecision" transform="matrix(1,0,0,1,-817,-104)" stroke-linecap="butt">
      <path fill="none" d="M1193 463 L1256 463 L1249 493 L1186 493 Z" fill-rule="evenodd" clip-path="url(#clipPath2)"/>
      <text x="1195.3213" xml:space="preserve" y="482.7139" clip-path="url(#clipPath2)" font-family="sans-serif" stroke="none">Hashmap</text>
    </g>
    <g fill="rgb(153,204,255)" text-rendering="geometricPrecision" shape-rendering="geometricPrecision" transform="matrix(1,0,0,1,-817,-104)" stroke="rgb(153,204,255)">
      <path d="M1357.7996 119 L1635 119 L1604.2004 313 L1327 313 Z" fill-rule="evenodd" clip-path="url(#clipPath2)" stroke="none"/>
    </g>
    <g text-rendering="geometricPrecision" stroke-miterlimit="1.45" shape-rendering="geometricPrecision" transform="matrix(1,0,0,1,-817,-104)" stroke-linecap="butt">
      <path fill="none" d="M1357.7996 119 L1635 119 L1604.2004 313 L1327 313 Z" fill-rule="evenodd" clip-path="url(#clipPath2)"/>
      <text x="1467.9951" xml:space="preserve" y="137.0645" clip-path="url(#clipPath2)" font-family="sans-serif" stroke="none">Card</text>
    </g>
    <g fill="white" text-rendering="geometricPrecision" shape-rendering="geometricPrecision" transform="matrix(1,0,0,1,-817,-104)" stroke="white">
      <rect x="1358" width="100" height="30" y="159" clip-path="url(#clipPath2)" stroke="none"/>
    </g>
    <g text-rendering="geometricPrecision" stroke-miterlimit="1.45" shape-rendering="geometricPrecision" transform="matrix(1,0,0,1,-817,-104)" stroke-linecap="butt">
      <rect fill="none" x="1358" width="100" height="30" y="159" clip-path="url(#clipPath2)"/>
      <text x="1386.6602" xml:space="preserve" y="178.7139" clip-path="url(#clipPath2)" font-family="sans-serif" stroke="none">Number</text>
    </g>
    <g fill="white" text-rendering="geometricPrecision" shape-rendering="geometricPrecision" transform="matrix(1,0,0,1,-817,-104)" stroke="white">
      <rect x="1358" width="100" height="30" y="201" clip-path="url(#clipPath2)" stroke="none"/>
    </g>
    <g text-rendering="geometricPrecision" stroke-miterlimit="1.45" shape-rendering="geometricPrecision" transform="matrix(1,0,0,1,-817,-104)" stroke-linecap="butt">
      <rect fill="none" x="1358" width="100" height="30" y="201" clip-path="url(#clipPath2)"/>
      <text x="1391.3242" xml:space="preserve" y="220.7139" clip-path="url(#clipPath2)" font-family="sans-serif" stroke="none">Image</text>
    </g>
    <g fill="white" text-rendering="geometricPrecision" shape-rendering="geometricPrecision" transform="matrix(1,0,0,1,-817,-104)" stroke="white">
      <rect x="1358" width="100" height="30" y="243" clip-path="url(#clipPath2)" stroke="none"/>
    </g>
    <g text-rendering="geometricPrecision" stroke-miterlimit="1.45" shape-rendering="geometricPrecision" transform="matrix(1,0,0,1,-817,-104)" stroke-linecap="butt">
      <rect fill="none" x="1358" width="100" height="30" y="243" clip-path="url(#clipPath2)"/>
      <text x="1388.3213" xml:space="preserve" y="262.7139" clip-path="url(#clipPath2)" font-family="sans-serif" stroke="none">Flipped</text>
    </g>
    <g fill="white" text-rendering="geometricPrecision" shape-rendering="geometricPrecision" transform="matrix(1,0,0,1,-817,-104)" stroke="white">
      <rect x="1505" width="100" height="30" y="159" clip-path="url(#clipPath2)" stroke="none"/>
    </g>
    <g text-rendering="geometricPrecision" stroke-miterlimit="1.45" shape-rendering="geometricPrecision" transform="matrix(1,0,0,1,-817,-104)" stroke-linecap="butt">
      <rect fill="none" x="1505" width="100" height="30" y="159" clip-path="url(#clipPath2)"/>
      <text x="1530.9941" xml:space="preserve" y="178.7139" clip-path="url(#clipPath2)" font-family="sans-serif" stroke="none">int (1 - 8)</text>
    </g>
    <g fill="white" text-rendering="geometricPrecision" shape-rendering="geometricPrecision" transform="matrix(1,0,0,1,-817,-104)" stroke="white">
      <rect x="1505" width="100" height="30" y="201" clip-path="url(#clipPath2)" stroke="none"/>
    </g>
    <g text-rendering="geometricPrecision" stroke-miterlimit="1.45" shape-rendering="geometricPrecision" transform="matrix(1,0,0,1,-817,-104)" stroke-linecap="butt">
      <rect fill="none" x="1505" width="100" height="30" y="201" clip-path="url(#clipPath2)"/>
      <text x="1533.332" xml:space="preserve" y="220.7139" clip-path="url(#clipPath2)" font-family="sans-serif" stroke="none">File URI</text>
    </g>
    <g fill="white" text-rendering="geometricPrecision" shape-rendering="geometricPrecision" transform="matrix(1,0,0,1,-817,-104)" stroke="white">
      <rect x="1505" width="100" height="30" y="243" clip-path="url(#clipPath2)" stroke="none"/>
    </g>
    <g text-rendering="geometricPrecision" stroke-miterlimit="1.45" shape-rendering="geometricPrecision" transform="matrix(1,0,0,1,-817,-104)" stroke-linecap="butt">
      <rect fill="none" x="1505" width="100" height="30" y="243" clip-path="url(#clipPath2)"/>
      <text x="1532.9805" xml:space="preserve" y="262.7139" clip-path="url(#clipPath2)" font-family="sans-serif" stroke="none">Boolean</text>
      <path fill="none" d="M1258.0387 287.1394 L1327.3596 265.0215" clip-path="url(#clipPath2)"/>
      <path d="M1334.9811 262.5897 L1322.0291 261.4739 L1326.407 265.3254 L1325.0687 271.0007 Z" clip-path="url(#clipPath2)" stroke="none"/>
      <path fill="none" d="M1458 174 L1497 174" clip-path="url(#clipPath2)"/>
      <path d="M1505 174 L1493 169 L1496 174 L1493 179 Z" clip-path="url(#clipPath2)" stroke="none"/>
      <path fill="none" d="M1458 216 L1497 216" clip-path="url(#clipPath2)"/>
      <path d="M1505 216 L1493 211 L1496 216 L1493 221 Z" clip-path="url(#clipPath2)" stroke="none"/>
      <path fill="none" d="M1458 258 L1497 258" clip-path="url(#clipPath2)"/>
      <path d="M1505 258 L1493 253 L1496 258 L1493 263 Z" clip-path="url(#clipPath2)" stroke="none"/>
    </g>
  </g>
</svg>
